<svg width="750" height="750" viewBox="0 0 750 750" fill="none" xmlns="http://www.w3.org/2000/svg">
<rect x="313" y="116" width="131" height="63" rx="31.5" fill="#21649E"/>
<path d="M360.281 138.582V156.238H358.211V147.234H356.219V155.34H354.227V138.914H356.219V145.496H358.211V138.582H360.281ZM352.234 140.672V142.43H347.82V150.281C349.744 150.262 351.326 150.164 353.113 149.832L353.27 151.609C351.141 152.039 349.285 152.098 346.824 152.117H345.633V140.672H352.234ZM378.064 152.449V154.207H361.931V152.449H366.111V148.816H363.318V147.059H365.798V141.824H363.259V140.086H376.658V141.824H374.08V147.059H376.599V148.816H373.806V152.449H378.064ZM367.966 147.059H371.931V141.824H367.966V147.059ZM368.279 152.449H371.638V148.816H368.279V152.449ZM393.464 138.582V156.258H391.276V138.582H393.464ZM383.952 139.871C386.608 139.871 388.542 142.293 388.561 146.102C388.542 149.949 386.608 152.352 383.952 152.352C381.276 152.352 379.343 149.949 379.343 146.102C379.343 142.293 381.276 139.871 383.952 139.871ZM383.952 141.824C382.448 141.824 381.432 143.406 381.432 146.102C381.432 148.816 382.448 150.398 383.952 150.398C385.436 150.398 386.452 148.816 386.452 146.102C386.452 143.406 385.436 141.824 383.952 141.824ZM401.93 142.82C401.91 145.965 403.493 149.168 406.227 150.477L404.899 152.215C402.985 151.248 401.608 149.383 400.856 147.137C400.084 149.539 398.639 151.531 396.618 152.547L395.289 150.809C398.121 149.461 399.743 146.082 399.762 142.82V140.008H401.93V142.82ZM409.45 138.582V145.496H412.164V147.352H409.45V156.238H407.282V138.582H409.45Z" fill="white"/>
<rect width="150" height="42" transform="translate(49 399)" fill="#523898"/>
<path d="M106.044 413.07C107.328 413.07 108.435 413.545 109.191 414.336H112.988V412.174H114.939V421.525H112.988V419.504H109.191C108.435 420.295 107.319 420.761 106.044 420.752C103.654 420.77 101.843 419.152 101.843 416.92C101.843 414.67 103.654 413.07 106.044 413.07ZM106.044 414.74C104.673 414.74 103.707 415.584 103.707 416.92C103.707 418.221 104.673 419.1 106.044 419.1C107.363 419.1 108.33 418.221 108.347 416.92C108.33 415.584 107.363 414.74 106.044 414.74ZM109.56 421.859C112.9 421.859 114.992 423.002 114.992 424.953C114.992 426.904 112.9 428.047 109.56 428.047C106.238 428.047 104.146 426.904 104.164 424.953C104.146 423.002 106.238 421.859 109.56 421.859ZM109.56 423.354C107.345 423.354 106.062 423.916 106.08 424.953C106.062 425.955 107.345 426.518 109.56 426.518C111.81 426.518 113.076 425.955 113.076 424.953C113.076 423.916 111.81 423.354 109.56 423.354ZM110.07 415.9C110.158 416.226 110.211 416.56 110.211 416.92C110.211 417.271 110.158 417.605 110.087 417.922H112.988V415.9H110.07ZM121.161 412.877C123.218 412.859 124.835 414.046 125.239 415.795H128.104V412.174H130.056V420.699H128.104V417.377H125.257C124.861 419.161 123.227 420.365 121.161 420.365C118.718 420.365 116.96 418.801 116.96 416.604C116.96 414.441 118.718 412.859 121.161 412.877ZM121.161 414.512C119.79 414.512 118.823 415.32 118.823 416.604C118.823 417.869 119.79 418.713 121.161 418.713C122.497 418.713 123.446 417.869 123.464 416.604C123.446 415.32 122.497 414.512 121.161 414.512ZM121.513 421.438V423.125H128.104V421.438H130.056V427.871H119.579V421.438H121.513ZM121.513 426.289H128.104V424.637H121.513V426.289ZM146.368 421.42V422.967H140.039V428.064H138.106V422.967H131.848V421.42H146.368ZM135.539 412.807V414.758H142.641V412.807H144.61V419.768H133.606V412.807H135.539ZM135.539 418.186H142.641V416.305H135.539V418.186Z" fill="white"/>
<rect x="49.5" y="456.5" width="149" height="41" fill="white"/>
<rect x="49.5" y="456.5" width="149" height="41" stroke="#885EFE"/>
<path d="M102.616 474.797C102.522 473.828 101.694 473.266 100.475 473.266C99.1938 473.266 98.4125 473.891 98.4125 474.734C98.4125 475.688 99.4125 476.078 100.35 476.297L101.413 476.578C103.1 476.969 104.725 477.859 104.725 479.828C104.725 481.812 103.163 483.172 100.444 483.172C97.8031 483.172 96.1469 481.906 96.0531 479.672H98.0531C98.1469 480.859 99.1469 481.438 100.428 481.438C101.772 481.438 102.694 480.781 102.694 479.812C102.694 478.922 101.866 478.547 100.647 478.234L99.3656 477.906C97.5063 477.422 96.35 476.484 96.35 474.859C96.35 472.859 98.1313 471.531 100.506 471.531C102.913 471.531 104.538 472.891 104.569 474.797H102.616ZM108.004 471.688V483H105.972V471.688H108.004ZM116.374 471.062C117.514 471.062 118.499 471.484 119.171 472.188H122.546V470.266H124.28V478.578H122.546V476.781H119.171C118.499 477.484 117.507 477.898 116.374 477.891C114.249 477.906 112.639 476.469 112.639 474.484C112.639 472.484 114.249 471.062 116.374 471.062ZM116.374 472.547C115.155 472.547 114.296 473.297 114.296 474.484C114.296 475.641 115.155 476.422 116.374 476.422C117.546 476.422 118.405 475.641 118.421 474.484C118.405 473.297 117.546 472.547 116.374 472.547ZM119.499 478.875C122.467 478.875 124.327 479.891 124.327 481.625C124.327 483.359 122.467 484.375 119.499 484.375C116.546 484.375 114.686 483.359 114.702 481.625C114.686 479.891 116.546 478.875 119.499 478.875ZM119.499 480.203C117.53 480.203 116.389 480.703 116.405 481.625C116.389 482.516 117.53 483.016 119.499 483.016C121.499 483.016 122.624 482.516 122.624 481.625C122.624 480.703 121.499 480.203 119.499 480.203ZM119.952 473.578C120.03 473.867 120.077 474.164 120.077 474.484C120.077 474.797 120.03 475.094 119.967 475.375H122.546V473.578H119.952ZM129.762 470.891C131.59 470.875 133.028 471.93 133.387 473.484H135.934V470.266H137.668V477.844H135.934V474.891H133.403C133.051 476.477 131.598 477.547 129.762 477.547C127.59 477.547 126.028 476.156 126.028 474.203C126.028 472.281 127.59 470.875 129.762 470.891ZM129.762 472.344C128.543 472.344 127.684 473.062 127.684 474.203C127.684 475.328 128.543 476.078 129.762 476.078C130.949 476.078 131.793 475.328 131.809 474.203C131.793 473.062 130.949 472.344 129.762 472.344ZM130.074 478.5V480H135.934V478.5H137.668V484.219H128.356V478.5H130.074ZM130.074 482.812H135.934V481.344H130.074V482.812ZM146.838 471.094V472.5H141.775V473.812H146.431V475.172H141.775V476.562C144.416 476.555 146.025 476.508 147.884 476.203L148.056 477.562C146.025 477.922 144.259 477.953 141.213 477.938H140.009V471.094H146.838ZM150.994 470.281V478.672H149.244V470.281H150.994ZM150.994 479.297V484.219H141.619V479.297H150.994ZM143.338 480.641V482.812H149.291V480.641H143.338Z" fill="#885EFE"/>
<rect x="49.5" y="513.5" width="149" height="41" fill="white"/>
<rect x="49.5" y="513.5" width="149" height="41" stroke="#885EFE"/>
<path d="M89.6872 531.531V533.172H95.2809V534.562H82.4059V533.172H87.9684V531.531H89.6872ZM89.7028 527.766C89.7028 529.375 91.5622 530.719 94.5778 531.016L93.9684 532.344C91.6012 532.047 89.7262 531.156 88.8278 529.781C87.9059 531.156 86.0387 532.047 83.6716 532.344L83.0622 531.016C86.0778 530.719 87.9372 529.375 87.9372 527.766V527.391H89.7028V527.766ZM93.6716 535.422V538.922H85.6403V539.938H94.0622V541.266H83.9372V537.688H91.9684V536.75H83.9216V535.422H93.6716ZM107.185 527.75V531.766H99.0753V533.172H107.497V534.562H97.3253V530.453H105.403V529.156H97.2941V527.75H107.185ZM108.685 535.766V537.156H103.075V541.406H101.341V537.156H95.7784V535.766H108.685ZM114.323 529.766C114.323 531.75 115.432 533.703 117.604 534.516L116.635 535.859C115.128 535.266 114.049 534.086 113.463 532.625C112.854 534.188 111.713 535.43 110.088 536.062L109.151 534.688C111.401 533.875 112.557 531.875 112.573 529.766V528.078H114.323V529.766ZM121.01 527.281V537.766H119.276V533.391H116.698V532H119.276V530.609H116.698V529.203H119.276V527.281H121.01ZM121.323 539.703V541.109H111.698V536.734H113.463V539.703H121.323ZM129.849 528.062C130.99 528.062 131.974 528.484 132.646 529.188H136.021V527.266H137.755V535.578H136.021V533.781H132.646C131.974 534.484 130.982 534.898 129.849 534.891C127.724 534.906 126.115 533.469 126.115 531.484C126.115 529.484 127.724 528.062 129.849 528.062ZM129.849 529.547C128.63 529.547 127.771 530.297 127.771 531.484C127.771 532.641 128.63 533.422 129.849 533.422C131.021 533.422 131.88 532.641 131.896 531.484C131.88 530.297 131.021 529.547 129.849 529.547ZM132.974 535.875C135.943 535.875 137.802 536.891 137.802 538.625C137.802 540.359 135.943 541.375 132.974 541.375C130.021 541.375 128.162 540.359 128.177 538.625C128.162 536.891 130.021 535.875 132.974 535.875ZM132.974 537.203C131.005 537.203 129.865 537.703 129.88 538.625C129.865 539.516 131.005 540.016 132.974 540.016C134.974 540.016 136.099 539.516 136.099 538.625C136.099 537.703 134.974 537.203 132.974 537.203ZM133.427 530.578C133.505 530.867 133.552 531.164 133.552 531.484C133.552 531.797 133.505 532.094 133.443 532.375H136.021V530.578H133.427ZM143.237 527.891C145.065 527.875 146.503 528.93 146.862 530.484H149.409V527.266H151.143V534.844H149.409V531.891H146.878C146.526 533.477 145.073 534.547 143.237 534.547C141.065 534.547 139.503 533.156 139.503 531.203C139.503 529.281 141.065 527.875 143.237 527.891ZM143.237 529.344C142.018 529.344 141.159 530.062 141.159 531.203C141.159 532.328 142.018 533.078 143.237 533.078C144.425 533.078 145.268 532.328 145.284 531.203C145.268 530.062 144.425 529.344 143.237 529.344ZM143.55 535.5V537H149.409V535.5H151.143V541.219H141.831V535.5H143.55ZM143.55 539.812H149.409V538.344H143.55V539.812ZM160.313 528.094V529.5H155.25V530.812H159.907V532.172H155.25V533.562C157.891 533.555 159.5 533.508 161.36 533.203L161.532 534.562C159.5 534.922 157.735 534.953 154.688 534.938H153.485V528.094H160.313ZM164.469 527.281V535.672H162.719V527.281H164.469ZM164.469 536.297V541.219H155.094V536.297H164.469ZM156.813 537.641V539.812H162.766V537.641H156.813Z" fill="#885EFE"/>
<rect width="150" height="42" transform="translate(216 399)" fill="#523898"/>
<path d="M255.793 417.271C255.687 416.182 254.756 415.549 253.384 415.549C251.943 415.549 251.064 416.252 251.064 417.201C251.064 418.273 252.189 418.713 253.244 418.959L254.439 419.275C256.338 419.715 258.166 420.717 258.166 422.932C258.166 425.164 256.408 426.693 253.349 426.693C250.379 426.693 248.515 425.27 248.41 422.756H250.66C250.765 424.092 251.89 424.742 253.332 424.742C254.843 424.742 255.881 424.004 255.881 422.914C255.881 421.912 254.949 421.49 253.578 421.139L252.136 420.77C250.045 420.225 248.744 419.17 248.744 417.342C248.744 415.092 250.748 413.598 253.42 413.598C256.127 413.598 257.955 415.127 257.99 417.271H255.793ZM263.333 426.676C260.732 426.676 259.132 425.146 259.132 423.125C259.132 421.631 260.108 420.699 261.523 419.715C260.784 418.818 260.222 417.896 260.222 416.762C260.222 414.951 261.54 413.615 263.544 413.615C265.548 413.615 266.778 414.951 266.778 416.498C266.778 417.711 266.146 418.625 265.091 419.398L264.282 419.996L266.62 422.721C266.945 422.097 267.148 421.35 267.148 420.506H269.081C269.081 422.255 268.598 423.494 267.974 424.32L269.837 426.5H267.411L266.603 425.568C265.689 426.324 264.458 426.676 263.333 426.676ZM261.329 423.02C261.329 424.039 262.138 424.848 263.403 424.848C264.08 424.848 264.775 424.61 265.39 424.162L262.735 421.121L262.525 421.279C261.663 421.912 261.329 422.58 261.329 423.02ZM262.208 416.797C262.208 417.377 262.604 417.966 263.14 418.625L263.86 418.133C264.528 417.693 264.88 417.254 264.88 416.604C264.88 416.041 264.388 415.443 263.579 415.461C262.771 415.461 262.208 416.094 262.208 416.797ZM270.61 413.773H273.422L277.202 423.02H277.36L281.139 413.773H283.952V426.5H281.754V417.746H281.631L278.098 426.465H276.463L272.93 417.711H272.825V426.5H270.61V413.773ZM294.726 415.988C294.708 418.818 296.132 421.701 298.593 422.879L297.398 424.443C295.675 423.573 294.436 421.895 293.759 419.873C293.065 422.035 291.764 423.828 289.945 424.742L288.749 423.178C291.298 421.965 292.757 418.924 292.775 415.988V413.457H294.726V415.988ZM301.494 412.174V418.396H303.937V420.066H301.494V428.064H299.542V412.174H301.494ZM308.577 412.877C310.634 412.859 312.251 414.046 312.655 415.795H315.52V412.174H317.472V420.699H315.52V417.377H312.673C312.277 419.161 310.642 420.365 308.577 420.365C306.134 420.365 304.376 418.801 304.376 416.604C304.376 414.441 306.134 412.859 308.577 412.877ZM308.577 414.512C307.206 414.512 306.239 415.32 306.239 416.604C306.239 417.869 307.206 418.713 308.577 418.713C309.913 418.713 310.862 417.869 310.88 416.604C310.862 415.32 309.913 414.512 308.577 414.512ZM308.929 421.438V423.125H315.52V421.438H317.472V427.871H306.995V421.438H308.929ZM308.929 426.289H315.52V424.637H308.929V426.289ZM333.784 421.42V422.967H327.455V428.064H325.522V422.967H319.264V421.42H333.784ZM322.955 412.807V414.758H330.057V412.807H332.026V419.768H321.022V412.807H322.955ZM322.955 418.186H330.057V416.305H322.955V418.186Z" fill="white"/>
<rect x="216.5" y="456.5" width="149" height="41" fill="white"/>
<rect x="216.5" y="456.5" width="149" height="41" stroke="#885EFE"/>
<path d="M246.271 477.289V478.52H243.523V482.717H241.978V478.52H239.244V482.717H237.685V478.52H234.978V477.289H246.271ZM240.597 470.795C243.222 470.809 245.054 471.875 245.054 473.557C245.054 475.211 243.222 476.264 240.597 476.264C237.959 476.264 236.154 475.211 236.168 473.557C236.154 471.875 237.959 470.809 240.597 470.795ZM240.597 472.025C238.847 472.025 237.713 472.586 237.726 473.557C237.713 474.5 238.847 475.061 240.597 475.061C242.347 475.061 243.482 474.5 243.482 473.557C243.482 472.586 242.347 472.025 240.597 472.025ZM251.314 473.871C251.314 475.895 252.503 478.027 254.499 478.861L253.665 480.064C252.202 479.436 251.136 478.137 250.575 476.564C250.001 478.26 248.921 479.682 247.472 480.365L246.597 479.176C248.552 478.273 249.769 475.977 249.769 473.871V472.832H247.048V471.574H254.021V472.832H251.314V473.871ZM256.933 470.357V482.717H255.402V470.357H256.933ZM269.604 479.982V481.227H258.311V479.982H263.178V477.576H259.555V471.178H261.073V473.201H266.801V471.178H268.319V477.576H264.682V479.982H269.604ZM261.073 476.346H266.801V474.418H261.073V476.346ZM276.41 471.383C276.41 472.941 278.147 474.514 280.785 474.855L280.184 476.086C278.085 475.771 276.417 474.739 275.617 473.338C274.804 474.739 273.143 475.771 271.065 476.086L270.463 474.855C273.074 474.514 274.811 472.941 274.811 471.383V470.754H276.41V471.383ZM281.236 477.152V478.41H276.328V482.717H274.824V478.41H269.971V477.152H281.236ZM294.835 470.357V482.717H293.304V470.357H294.835ZM291.144 471.67C291.144 475.348 289.722 478.479 285.388 480.529L284.595 479.312C287.828 477.774 289.332 475.683 289.599 472.873H285.224V471.67H291.144ZM303.924 471.342V472.463H296.61V471.342H299.495V470.289H301.012V471.342H303.924ZM300.274 472.818C302.079 472.805 303.309 473.529 303.309 474.678C303.309 475.648 302.407 476.298 301.012 476.469V477.125C302.058 477.077 303.104 476.988 304.088 476.865L304.198 477.904C301.545 478.355 298.62 478.396 296.432 478.396L296.227 477.221C297.211 477.228 298.332 477.221 299.495 477.18V476.455C298.093 476.291 297.211 475.642 297.225 474.678C297.211 473.529 298.428 472.805 300.274 472.818ZM300.274 473.844C299.303 473.83 298.674 474.131 298.688 474.678C298.674 475.184 299.303 475.484 300.274 475.471C301.217 475.484 301.846 475.184 301.86 474.678C301.846 474.131 301.217 473.83 300.274 473.844ZM306.481 470.385V478.697H304.95V470.385H306.481ZM306.481 479.203V482.717H304.95V480.393H297.977V479.203H306.481ZM312.289 471.137L309.103 482.99H307.572L310.771 471.137H312.289ZM317.072 473.871C317.072 475.895 318.261 478.027 320.257 478.861L319.423 480.064C317.96 479.436 316.894 478.137 316.333 476.564C315.759 478.26 314.679 479.682 313.23 480.365L312.355 479.176C314.31 478.273 315.527 475.977 315.527 473.871V472.832H312.806V471.574H319.779V472.832H317.072V473.871ZM322.691 470.357V482.717H321.16V470.357H322.691ZM334.432 470.371V479.723H332.901V478.643H330.481V477.576H332.901V470.371H334.432ZM334.719 481.24V482.471H325.655V478.82H327.173V481.24H334.719ZM324.014 475.922C326.298 475.908 329.36 475.881 331.985 475.553L332.067 476.646C331.049 476.817 329.996 476.934 328.95 477.002V479.381H327.432V477.084C326.277 477.132 325.177 477.139 324.206 477.139L324.014 475.922ZM328.048 470.822C329.852 470.822 331.11 471.711 331.124 473.01C331.11 474.336 329.852 475.184 328.048 475.184C326.216 475.184 324.958 474.336 324.958 473.01C324.958 471.711 326.216 470.822 328.048 470.822ZM328.048 471.943C327.063 471.943 326.393 472.34 326.393 473.01C326.393 473.68 327.063 474.076 328.048 474.076C328.991 474.076 329.661 473.68 329.675 473.01C329.661 472.34 328.991 471.943 328.048 471.943ZM342.387 471.082V472.312H337.957V473.461H342.031V474.65H337.957V475.867C340.268 475.86 341.676 475.819 343.303 475.553L343.453 476.742C341.676 477.057 340.131 477.084 337.465 477.07H336.412V471.082H342.387ZM346.024 470.371V477.713H344.492V470.371H346.024ZM346.024 478.26V482.566H337.821V478.26H346.024ZM339.324 479.436V481.336H344.533V479.436H339.324Z" fill="#885EFE"/>
<rect x="216.5" y="513.5" width="149" height="41" fill="white"/>
<rect x="216.5" y="513.5" width="149" height="41" stroke="#885EFE"/>
<path d="M244.737 530.391V528.688H253.752V530.391H250.268V540H248.237V530.391H244.737ZM256.937 528.688V540H254.906V528.688H256.937ZM264.763 531.797C264.669 530.828 263.841 530.266 262.622 530.266C261.341 530.266 260.56 530.891 260.56 531.734C260.56 532.688 261.56 533.078 262.497 533.297L263.56 533.578C265.247 533.969 266.872 534.859 266.872 536.828C266.872 538.812 265.31 540.172 262.591 540.172C259.95 540.172 258.294 538.906 258.2 536.672H260.2C260.294 537.859 261.294 538.438 262.575 538.438C263.919 538.438 264.841 537.781 264.841 536.812C264.841 535.922 264.013 535.547 262.794 535.234L261.513 534.906C259.653 534.422 258.497 533.484 258.497 531.859C258.497 529.859 260.278 528.531 262.653 528.531C265.06 528.531 266.685 529.891 266.716 531.797H264.763ZM283.789 535.188V536.594H280.648V541.391H278.883V536.594H275.758V541.391H273.977V536.594H270.883V535.188H283.789ZM277.305 527.766C280.305 527.781 282.398 529 282.398 530.922C282.398 532.812 280.305 534.016 277.305 534.016C274.289 534.016 272.227 532.812 272.242 530.922C272.227 529 274.289 527.781 277.305 527.766ZM277.305 529.172C275.305 529.172 274.008 529.812 274.023 530.922C274.008 532 275.305 532.641 277.305 532.641C279.305 532.641 280.602 532 280.602 530.922C280.602 529.812 279.305 529.172 277.305 529.172ZM289.615 531.281C289.615 533.594 290.974 536.031 293.255 536.984L292.302 538.359C290.63 537.641 289.412 536.156 288.771 534.359C288.115 536.297 286.88 537.922 285.224 538.703L284.224 537.344C286.458 536.312 287.849 533.688 287.849 531.281V530.094H284.74V528.656H292.708V530.094H289.615V531.281ZM296.037 527.266V541.391H294.287V527.266H296.037ZM310.581 538.266V539.688H297.675V538.266H303.237V535.516H299.097V528.203H300.831V530.516H307.378V528.203H309.112V535.516H304.956V538.266H310.581ZM300.831 534.109H307.378V531.906H300.831V534.109ZM318.422 528.438C318.422 530.219 320.407 532.016 323.422 532.406L322.735 533.812C320.336 533.453 318.43 532.273 317.516 530.672C316.586 532.273 314.688 533.453 312.313 533.812L311.625 532.406C314.61 532.016 316.594 530.219 316.594 528.438V527.719H318.422V528.438ZM323.938 535.031V536.469H318.328V541.391H316.61V536.469H311.063V535.031H323.938ZM332.06 528.094V529.5H326.998V530.812H331.654V532.172H326.998V533.562C329.638 533.555 331.248 533.508 333.107 533.203L333.279 534.562C331.248 534.922 329.482 534.953 326.435 534.938H325.232V528.094H332.06ZM336.217 527.281V535.672H334.467V527.281H336.217ZM336.217 536.297V541.219H326.842V536.297H336.217ZM328.56 537.641V539.812H334.513V537.641H328.56Z" fill="#885EFE"/>
<rect width="150" height="42" transform="translate(383 399)" fill="#523898"/>
<path d="M417.053 415.988C417.036 418.906 418.565 421.824 421.149 422.932L419.989 424.496C418.161 423.652 416.816 421.965 416.087 419.891C415.357 422.132 413.995 423.96 412.061 424.865L410.866 423.23C413.52 422.088 415.067 419.047 415.067 415.988V413.457H417.053V415.988ZM424.26 412.174V428.082H422.292V412.174H424.26ZM434.367 414.354C434.367 416.814 436.776 419.275 440.098 419.855L439.219 421.49C436.556 420.928 434.376 419.319 433.348 417.184C432.293 419.302 430.113 420.919 427.459 421.49L426.598 419.855C429.885 419.258 432.276 416.797 432.293 414.354V413.176H434.367V414.354ZM440.678 424.426V426.043H426.158V424.426H440.678ZM447.99 413.158V414.74H443.824V416.234H447.392V417.746H443.824V419.381C445.731 419.363 447.041 419.293 448.587 419.012L448.798 420.541C446.97 420.875 445.459 420.945 442.998 420.945H441.943V413.158H447.99ZM454.863 412.174V421.684H453V412.174H454.863ZM451.734 412.438V421.561H449.871V417.641H448.078V416.059H449.871V412.438H451.734ZM454.863 422.352V427.871H444.14V422.352H454.863ZM446.091 423.898V426.289H452.929V423.898H446.091ZM465.901 415.988C465.883 418.818 467.307 421.701 469.768 422.879L468.573 424.443C466.85 423.573 465.611 421.895 464.934 419.873C464.24 422.035 462.939 423.828 461.12 424.742L459.924 423.178C462.473 421.965 463.932 418.924 463.95 415.988V413.457H465.901V415.988ZM472.668 412.174V418.396H475.112V420.066H472.668V428.064H470.717V412.174H472.668ZM479.752 412.877C481.808 412.859 483.426 414.046 483.83 415.795H486.695V412.174H488.646V420.699H486.695V417.377H483.848C483.452 419.161 481.817 420.365 479.752 420.365C477.308 420.365 475.551 418.801 475.551 416.604C475.551 414.441 477.308 412.859 479.752 412.877ZM479.752 414.512C478.381 414.512 477.414 415.32 477.414 416.604C477.414 417.869 478.381 418.713 479.752 418.713C481.088 418.713 482.037 417.869 482.055 416.604C482.037 415.32 481.088 414.512 479.752 414.512ZM480.103 421.438V423.125H486.695V421.438H488.646V427.871H478.17V421.438H480.103ZM480.103 426.289H486.695V424.637H480.103V426.289ZM504.958 421.42V422.967H498.63V428.064H496.697V422.967H490.439V421.42H504.958ZM494.13 412.807V414.758H501.232V412.807H503.201V419.768H492.197V412.807H494.13ZM494.13 418.186H501.232V416.305H494.13V418.186Z" fill="white"/>
<rect x="383.5" y="456.5" width="149" height="41" fill="white"/>
<rect x="383.5" y="456.5" width="149" height="41" stroke="#885EFE"/>
<path d="M423.428 473.656C423.412 476.25 424.772 478.844 427.069 479.828L426.037 481.219C424.412 480.469 423.217 478.969 422.569 477.125C421.92 479.117 420.709 480.742 418.991 481.547L417.928 480.094C420.287 479.078 421.662 476.375 421.662 473.656V471.406H423.428V473.656ZM429.834 470.266V484.406H428.084V470.266H429.834ZM438.769 472.203C438.769 474.391 440.91 476.578 443.863 477.094L443.082 478.547C440.715 478.047 438.777 476.617 437.863 474.719C436.926 476.602 434.988 478.039 432.629 478.547L431.863 477.094C434.785 476.562 436.91 474.375 436.926 472.203V471.156H438.769V472.203ZM444.379 481.156V482.594H431.472V481.156H444.379ZM450.829 471.141V472.547H447.126V473.875H450.298V475.219H447.126V476.672C448.822 476.656 449.986 476.594 451.361 476.344L451.548 477.703C449.923 478 448.579 478.062 446.392 478.062H445.454V471.141H450.829ZM456.939 470.266V478.719H455.283V470.266H456.939ZM454.158 470.5V478.609H452.501V475.125H450.908V473.719H452.501V470.5H454.158ZM456.939 479.312V484.219H447.408V479.312H456.939ZM449.142 480.688V482.812H455.22V480.688H449.142ZM462.171 471.062C463.311 471.062 464.296 471.484 464.967 472.188H468.342V470.266H470.077V478.578H468.342V476.781H464.967C464.296 477.484 463.303 477.898 462.171 477.891C460.046 477.906 458.436 476.469 458.436 474.484C458.436 472.484 460.046 471.062 462.171 471.062ZM462.171 472.547C460.952 472.547 460.092 473.297 460.092 474.484C460.092 475.641 460.952 476.422 462.171 476.422C463.342 476.422 464.202 475.641 464.217 474.484C464.202 473.297 463.342 472.547 462.171 472.547ZM465.296 478.875C468.264 478.875 470.124 479.891 470.124 481.625C470.124 483.359 468.264 484.375 465.296 484.375C462.342 484.375 460.483 483.359 460.499 481.625C460.483 479.891 462.342 478.875 465.296 478.875ZM465.296 480.203C463.327 480.203 462.186 480.703 462.202 481.625C462.186 482.516 463.327 483.016 465.296 483.016C467.296 483.016 468.421 482.516 468.421 481.625C468.421 480.703 467.296 480.203 465.296 480.203ZM465.749 473.578C465.827 473.867 465.874 474.164 465.874 474.484C465.874 474.797 465.827 475.094 465.764 475.375H468.342V473.578H465.749ZM475.559 470.891C477.387 470.875 478.824 471.93 479.184 473.484H481.731V470.266H483.465V477.844H481.731V474.891H479.199C478.848 476.477 477.395 477.547 475.559 477.547C473.387 477.547 471.824 476.156 471.824 474.203C471.824 472.281 473.387 470.875 475.559 470.891ZM475.559 472.344C474.34 472.344 473.481 473.062 473.481 474.203C473.481 475.328 474.34 476.078 475.559 476.078C476.746 476.078 477.59 475.328 477.606 474.203C477.59 473.062 476.746 472.344 475.559 472.344ZM475.871 478.5V480H481.731V478.5H483.465V484.219H474.152V478.5H475.871ZM475.871 482.812H481.731V481.344H475.871V482.812ZM492.634 471.094V472.5H487.572V473.812H492.228V475.172H487.572V476.562C490.213 476.555 491.822 476.508 493.681 476.203L493.853 477.562C491.822 477.922 490.056 477.953 487.009 477.938H485.806V471.094H492.634ZM496.791 470.281V478.672H495.041V470.281H496.791ZM496.791 479.297V484.219H487.416V479.297H496.791ZM489.134 480.641V482.812H495.088V480.641H489.134Z" fill="#885EFE"/>
<rect x="383.5" y="513.5" width="149" height="41" fill="white"/>
<rect x="383.5" y="513.5" width="149" height="41" stroke="#885EFE"/>
<path d="M436.31 528.562V529.922C436.294 531.672 436.294 533.641 435.747 536.594L433.997 536.406C434.544 533.656 434.544 531.648 434.56 529.953H426.122V528.562H436.31ZM437.653 538.141V539.562H424.778V538.141H429.528V533.234H431.247V538.141H437.653ZM450.245 527.281V535.562H448.588V532.047H447.104V535.5H445.463V527.547H447.104V530.625H448.588V527.281H450.245ZM450.245 536.141V541.391H448.51V537.547H440.51V536.141H450.245ZM444.323 528.266C444.338 531.766 442.557 534.203 438.917 535.688L438.088 534.391C440.838 533.344 442.276 531.742 442.557 529.672H438.729V528.266H444.323ZM456.883 531.281C456.883 533.594 458.242 536.031 460.523 536.984L459.57 538.359C457.898 537.641 456.68 536.156 456.039 534.359C455.383 536.297 454.148 537.922 452.492 538.703L451.492 537.344C453.727 536.312 455.117 533.688 455.117 531.281V530.094H452.008V528.656H459.977V530.094H456.883V531.281ZM463.305 527.266V541.391H461.555V527.266H463.305ZM476.787 527.281V537.969H475.037V536.734H472.271V535.516H475.037V527.281H476.787ZM477.115 539.703V541.109H466.755V536.938H468.49V539.703H477.115ZM464.88 533.625C467.49 533.609 470.99 533.578 473.99 533.203L474.083 534.453C472.919 534.648 471.716 534.781 470.521 534.859V537.578H468.787V534.953C467.466 535.008 466.208 535.016 465.099 535.016L464.88 533.625ZM469.49 527.797C471.552 527.797 472.99 528.812 473.005 530.297C472.99 531.812 471.552 532.781 469.49 532.781C467.396 532.781 465.958 531.812 465.958 530.297C465.958 528.812 467.396 527.797 469.49 527.797ZM469.49 529.078C468.365 529.078 467.599 529.531 467.599 530.297C467.599 531.062 468.365 531.516 469.49 531.516C470.568 531.516 471.333 531.062 471.349 530.297C471.333 529.531 470.568 529.078 469.49 529.078ZM485.94 528.094V529.5H480.878V530.812H485.534V532.172H480.878V533.562C483.518 533.555 485.128 533.508 486.987 533.203L487.159 534.562C485.128 534.922 483.362 534.953 480.315 534.938H479.112V528.094H485.94ZM490.097 527.281V535.672H488.347V527.281H490.097ZM490.097 536.297V541.219H480.722V536.297H490.097ZM482.44 537.641V539.812H488.393V537.641H482.44Z" fill="#885EFE"/>
<rect x="383.5" y="570.5" width="149" height="63" fill="#8A949E"/>
<rect x="383.5" y="570.5" width="149" height="63" stroke="#697077"/>
<path d="M437.3 586.461C437.3 588.195 438.319 590.023 440.03 590.738L439.316 591.77C438.062 591.23 437.148 590.117 436.667 588.77C436.175 590.223 435.249 591.441 434.007 592.027L433.257 591.008C434.933 590.234 435.976 588.266 435.976 586.461V585.57H433.644V584.492H439.62V585.57H437.3V586.461ZM442.116 583.449V594.043H440.804V583.449H442.116ZM448.145 589.988C450.336 589.988 451.684 590.727 451.696 592.004C451.684 593.293 450.336 594.043 448.145 594.043C445.93 594.043 444.559 593.293 444.559 592.004C444.559 590.727 445.93 589.988 448.145 589.988ZM448.145 591.008C446.692 591.008 445.86 591.348 445.86 592.004C445.86 592.66 446.692 593.012 448.145 593.012C449.598 593.012 450.407 592.66 450.407 592.004C450.407 591.348 449.598 591.008 448.145 591.008ZM451.59 583.449V585.98H453.067V587.07H451.59V589.73H450.29V583.449H451.59ZM444.887 584.117V585.547H447.36V584.117H448.649V589.062H443.598V584.117H444.887ZM444.887 588.031H447.36V586.566H444.887V588.031ZM456.951 585.992C456.939 587.879 457.889 589.801 459.529 590.586L458.732 591.629C457.584 591.049 456.758 589.93 456.307 588.582C455.844 590.023 454.977 591.219 453.764 591.828L452.967 590.785C454.666 589.977 455.639 587.949 455.65 585.992V584.305H456.951V585.992ZM461.463 583.449V587.598H463.092V588.711H461.463V594.043H460.162V583.449H461.463ZM472.765 589.449V590.504H468.546V594.031H467.257V590.504H463.085V589.449H472.765ZM471.581 583.988V588.207H464.269V583.988H471.581ZM465.546 585.031V587.188H470.281V585.031H465.546ZM482.708 591.676V592.73H473.028V591.676H477.177V589.227H478.466V591.676H482.708ZM478.501 584.867C478.501 586.473 480.106 588.055 482.333 588.406L481.77 589.484C479.977 589.145 478.513 588.119 477.809 586.73C477.106 588.113 475.653 589.156 473.872 589.484L473.309 588.406C475.524 588.055 477.106 586.461 477.118 584.867V584.094H478.501V584.867ZM437.685 615.297V616.75H424.778V615.297H430.325V612.516H425.888V611.141H427.872V606.922H425.841V605.516H436.56V606.922H434.497V611.141H436.513V612.516H432.044V615.297H437.685ZM429.607 611.141H432.778V606.922H429.607V611.141ZM449.307 604.266V607.984H451.276V609.438H449.307V613.281H447.573V604.266H449.307ZM444.745 613.406C447.635 613.406 449.463 614.328 449.463 615.891C449.463 617.438 447.635 618.375 444.745 618.375C441.807 618.375 440.01 617.438 440.026 615.891C440.01 614.328 441.807 613.406 444.745 613.406ZM444.745 614.734C442.807 614.734 441.729 615.109 441.745 615.891C441.729 616.641 442.807 617.062 444.745 617.062C446.651 617.062 447.729 616.641 447.729 615.891C447.729 615.109 446.651 614.734 444.745 614.734ZM446.557 605.703V607.062H438.182V605.703H441.51V604.172H443.245V605.703H446.557ZM442.37 607.625C444.417 607.625 445.807 608.641 445.823 610.156C445.807 611.672 444.417 612.672 442.37 612.672C440.307 612.672 438.901 611.672 438.901 610.156C438.901 608.641 440.307 607.625 442.37 607.625ZM442.37 608.906C441.292 608.906 440.588 609.375 440.588 610.156C440.588 610.922 441.292 611.359 442.37 611.359C443.448 611.359 444.167 610.922 444.167 610.156C444.167 609.375 443.448 608.906 442.37 608.906ZM456.602 607.656C456.586 610.172 457.852 612.734 460.039 613.781L458.977 615.172C457.445 614.398 456.344 612.906 455.742 611.109C455.125 613.031 453.969 614.625 452.352 615.438L451.289 614.047C453.555 612.969 454.852 610.266 454.867 607.656V605.406H456.602V607.656ZM462.617 604.266V609.797H464.789V611.281H462.617V618.391H460.883V604.266H462.617ZM477.833 612.266V613.672H472.208V618.375H470.49V613.672H464.927V612.266H477.833ZM476.255 604.984V610.609H466.505V604.984H476.255ZM468.208 606.375V609.25H474.521V606.375H468.208ZM491.237 615.234V616.641H478.331V615.234H483.862V611.969H485.581V615.234H491.237ZM485.628 606.156C485.628 608.297 487.768 610.406 490.737 610.875L489.987 612.312C487.597 611.859 485.643 610.492 484.706 608.641C483.768 610.484 481.831 611.875 479.456 612.312L478.706 610.875C481.659 610.406 483.768 608.281 483.784 606.156V605.125H485.628V606.156Z" fill="white"/>
<rect width="150" height="42" transform="translate(550 399)" fill="#523898"/>
<path d="M600.805 417.271C600.7 416.182 599.768 415.549 598.397 415.549C596.955 415.549 596.077 416.252 596.077 417.201C596.077 418.273 597.202 418.713 598.256 418.959L599.452 419.275C601.35 419.715 603.178 420.717 603.178 422.932C603.178 425.164 601.42 426.693 598.362 426.693C595.391 426.693 593.528 425.27 593.422 422.756H595.672C595.778 424.092 596.903 424.742 598.344 424.742C599.856 424.742 600.893 424.004 600.893 422.914C600.893 421.912 599.961 421.49 598.59 421.139L597.149 420.77C595.057 420.225 593.756 419.17 593.756 417.342C593.756 415.092 595.76 413.598 598.432 413.598C601.139 413.598 602.967 415.127 603.002 417.271H600.805ZM606.922 413.773V426.5H604.637V413.773H606.922ZM617.714 415.988C617.696 418.818 619.12 421.701 621.581 422.879L620.385 424.443C618.663 423.573 617.424 421.895 616.747 419.873C616.052 422.035 614.752 423.828 612.932 424.742L611.737 423.178C614.286 421.965 615.745 418.924 615.762 415.988V413.457H617.714V415.988ZM624.481 412.174V418.396H626.925V420.066H624.481V428.064H622.53V412.174H624.481ZM631.565 412.877C633.621 412.859 635.238 414.046 635.643 415.795H638.508V412.174H640.459V420.699H638.508V417.377H635.66C635.265 419.161 633.63 420.365 631.565 420.365C629.121 420.365 627.363 418.801 627.363 416.604C627.363 414.441 629.121 412.859 631.565 412.877ZM631.565 414.512C630.194 414.512 629.227 415.32 629.227 416.604C629.227 417.869 630.194 418.713 631.565 418.713C632.901 418.713 633.85 417.869 633.867 416.604C633.85 415.32 632.901 414.512 631.565 414.512ZM631.916 421.438V423.125H638.508V421.438H640.459V427.871H629.983V421.438H631.916ZM631.916 426.289H638.508V424.637H631.916V426.289ZM656.771 421.42V422.967H650.443V428.064H648.509V422.967H642.252V421.42H656.771ZM645.943 412.807V414.758H653.045V412.807H655.013V419.768H644.009V412.807H645.943ZM645.943 418.186H653.045V416.305H645.943V418.186Z" fill="white"/>
<rect x="550.5" y="456.5" width="149" height="41" fill="white"/>
<rect x="550.5" y="456.5" width="149" height="41" stroke="#885EFE"/>
<path d="M577.652 471.688V483H575.621V471.688H577.652ZM578.821 473.391V471.688H587.837V473.391H584.352V483H582.321V473.391H578.821ZM596.988 473.656C596.988 476.281 598.238 478.859 600.488 479.844L599.441 481.234C597.84 480.453 596.715 478.953 596.113 477.109C595.496 479.055 594.347 480.672 592.722 481.5L591.629 480.094C593.926 479.016 595.207 476.297 595.222 473.656V471.406H596.988V473.656ZM603.613 470.266V484.406H601.894V476.234H598.926V474.828H601.894V470.266H603.613ZM616.908 470.266V484.406H615.158V470.266H616.908ZM607.642 471.422V474.953H611.064V471.422H612.783V481.078H605.908V471.422H607.642ZM607.642 479.656H611.064V476.312H607.642V479.656ZM625.842 472.203C625.842 474.391 627.983 476.578 630.936 477.094L630.155 478.547C627.788 478.047 625.85 476.617 624.936 474.719C623.999 476.602 622.061 478.039 619.702 478.547L618.936 477.094C621.858 476.562 623.983 474.375 623.999 472.203V471.156H625.842V472.203ZM631.452 481.156V482.594H618.546V481.156H631.452ZM647.087 470.266V484.391H645.337V470.266H647.087ZM642.869 471.766C642.869 475.969 641.244 479.547 636.291 481.891L635.384 480.5C639.08 478.742 640.798 476.352 641.103 473.141H636.103V471.766H642.869ZM657.538 471.391V472.672H649.179V471.391H652.476V470.188H654.21V471.391H657.538ZM653.366 473.078C655.429 473.062 656.835 473.891 656.835 475.203C656.835 476.312 655.804 477.055 654.21 477.25V478C655.405 477.945 656.601 477.844 657.726 477.703L657.851 478.891C654.819 479.406 651.476 479.453 648.976 479.453L648.741 478.109C649.866 478.117 651.148 478.109 652.476 478.062V477.234C650.874 477.047 649.866 476.305 649.882 475.203C649.866 473.891 651.257 473.062 653.366 473.078ZM653.366 474.25C652.257 474.234 651.538 474.578 651.554 475.203C651.538 475.781 652.257 476.125 653.366 476.109C654.444 476.125 655.163 475.781 655.179 475.203C655.163 474.578 654.444 474.234 653.366 474.25ZM660.46 470.297V479.797H658.71V470.297H660.46ZM660.46 480.375V484.391H658.71V481.734H650.741V480.375H660.46ZM669.676 471.094V472.5H664.614V473.812H669.27V475.172H664.614V476.562C667.254 476.555 668.864 476.508 670.723 476.203L670.895 477.562C668.864 477.922 667.098 477.953 664.051 477.938H662.848V471.094H669.676ZM673.833 470.281V478.672H672.083V470.281H673.833ZM673.833 479.297V484.219H664.458V479.297H673.833ZM666.176 480.641V482.812H672.129V480.641H666.176Z" fill="#885EFE"/>
<rect x="550.5" y="513.5" width="149" height="41" fill="white"/>
<rect x="550.5" y="513.5" width="149" height="41" stroke="#885EFE"/>
<path d="M617.292 527.266V541.391H615.62V534.141H614.104V540.734H612.479V527.641H614.104V532.734H615.62V527.266H617.292ZM611.276 529.047C611.276 532.859 610.073 536.141 606.057 538.438L605.057 537.234C608.065 535.492 609.338 533.258 609.588 530.438H605.713V529.047H611.276ZM620.758 527.891V529.688H624.055V527.891H625.773V534.047H619.039V527.891H620.758ZM620.758 532.672H624.055V531H620.758V532.672ZM629.695 527.266V530.125H631.664V531.531H629.695V534.5H627.961V527.266H629.695ZM629.695 535.062V538.766H622.195V539.891H630.133V541.266H620.477V537.5H627.961V536.422H620.461V535.062H629.695ZM639.552 528.094V529.5H634.49V530.812H639.146V532.172H634.49V533.562C637.13 533.555 638.74 533.508 640.599 533.203L640.771 534.562C638.74 534.922 636.974 534.953 633.927 534.938H632.724V528.094H639.552ZM643.708 527.281V535.672H641.958V527.281H643.708ZM643.708 536.297V541.219H634.333V536.297H643.708ZM636.052 537.641V539.812H642.005V537.641H636.052Z" fill="#885EFE"/>
<rect x="286" y="281" width="185" height="42" rx="21" fill="#171C61"/>
<path d="M332.486 297.32C332.466 300.465 334.049 303.668 336.783 304.977L335.455 306.715C333.541 305.748 332.164 303.883 331.412 301.637C330.64 304.039 329.195 306.031 327.174 307.047L325.845 305.309C328.677 303.961 330.299 300.582 330.318 297.32V294.508H332.486V297.32ZM340.006 293.082V299.996H342.72V301.852H340.006V310.738H337.838V293.082H340.006ZM347.925 293.863C350.21 293.844 352.007 295.162 352.456 297.105H355.64V293.082H357.808V302.555H355.64V298.863H352.476C352.036 300.846 350.22 302.184 347.925 302.184C345.21 302.184 343.257 300.445 343.257 298.004C343.257 295.602 345.21 293.844 347.925 293.863ZM347.925 295.68C346.401 295.68 345.327 296.578 345.327 298.004C345.327 299.41 346.401 300.348 347.925 300.348C349.409 300.348 350.464 299.41 350.484 298.004C350.464 296.578 349.409 295.68 347.925 295.68ZM348.316 303.375V305.25H355.64V303.375H357.808V310.523H346.167V303.375H348.316ZM348.316 308.766H355.64V306.93H348.316V308.766ZM375.961 302.027V303.785H359.868V302.027H366.821V300.152H368.969V302.027H375.961ZM368.969 293.121V294.723H374.379V296.441H369.145C369.409 297.887 371.489 299.098 375.161 299.352L374.497 301.012C371.333 300.768 368.999 299.781 367.895 298.258C366.792 299.781 364.438 300.768 361.294 301.012L360.629 299.352C364.282 299.098 366.362 297.887 366.645 296.441H361.45V294.723H366.821V293.121H368.969ZM367.895 304.762C371.743 304.762 373.989 305.816 374.008 307.75C373.989 309.664 371.743 310.719 367.895 310.719C364.028 310.719 361.743 309.664 361.743 307.75C361.743 305.816 364.028 304.762 367.895 304.762ZM367.895 306.383C365.297 306.383 363.93 306.832 363.95 307.75C363.93 308.648 365.297 309.098 367.895 309.098C370.434 309.098 371.821 308.648 371.84 307.75C371.821 306.832 370.434 306.383 367.895 306.383ZM386.576 293.941V294.898C386.576 295.914 386.576 297.457 386.166 299.352L384.057 299.117C384.33 297.691 384.389 296.568 384.408 295.66H377.572V293.941H386.576ZM382.104 297.496V300.387C383.939 300.338 385.805 300.211 387.533 299.996L387.67 301.52C383.998 302.145 379.896 302.184 376.713 302.184L376.518 300.484C377.582 300.484 378.754 300.484 379.975 300.445V297.496H382.104ZM390.795 293.082V297.008H393.08V298.766H390.795V302.516H388.568V293.082H390.795ZM390.795 303.199V307.574H380.99V308.922H391.4V310.562H378.842V306.031H388.588V304.801H378.803V303.199H390.795ZM412.571 293.102V303.102H410.384V293.102H412.571ZM412.571 303.961V310.523H400.852V303.961H412.571ZM403.001 305.68V308.766H410.442V305.68H403.001ZM402.942 293.941C405.657 293.941 407.688 295.66 407.688 298.16C407.688 300.582 405.657 302.34 402.942 302.34C400.208 302.34 398.177 300.582 398.177 298.16C398.177 295.66 400.208 293.941 402.942 293.941ZM402.942 295.777C401.399 295.777 400.286 296.695 400.306 298.16C400.286 299.586 401.399 300.504 402.942 300.504C404.466 300.504 405.559 299.586 405.559 298.16C405.559 296.695 404.466 295.777 402.942 295.777ZM429.514 293.102V306.461H427.326V304.918H423.869V303.395H427.326V293.102H429.514ZM429.924 308.629V310.387H416.975V305.172H419.143V308.629H429.924ZM414.631 301.031C417.893 301.012 422.268 300.973 426.018 300.504L426.135 302.066C424.68 302.311 423.176 302.477 421.682 302.574V305.973H419.514V302.691C417.864 302.76 416.291 302.77 414.905 302.77L414.631 301.031ZM420.393 293.746C422.971 293.746 424.768 295.016 424.787 296.871C424.768 298.766 422.971 299.977 420.393 299.977C417.776 299.977 415.979 298.766 415.979 296.871C415.979 295.016 417.776 293.746 420.393 293.746ZM420.393 295.348C418.987 295.348 418.03 295.914 418.03 296.871C418.03 297.828 418.987 298.395 420.393 298.395C421.741 298.395 422.698 297.828 422.717 296.871C422.698 295.914 421.741 295.348 420.393 295.348Z" fill="white"/>
<rect x="148" y="209" width="185" height="42" rx="21" fill="#697077"/>
<path d="M211.346 221.082V238.738H209.159V221.082H211.346ZM206.073 222.957C206.073 228.211 204.041 232.684 197.85 235.613L196.717 233.875C201.336 231.678 203.485 228.689 203.866 224.676H197.616V222.957H206.073ZM222.605 221.648C222.605 223.543 225.027 225.242 228.699 225.652L227.976 227.293C224.988 226.951 222.615 225.76 221.472 224.051C220.34 225.76 217.967 226.951 215.008 227.293L214.265 225.652C217.976 225.242 220.359 223.543 220.379 221.648V221.18H222.605V221.648ZM229.539 228.172V229.891H222.547V231.258H227.527V235.633H217.488V236.922H228.015V238.582H215.359V234.07H225.398V232.918H215.34V231.258H220.379V229.891H213.445V228.172H229.539ZM249.382 221.102V234.051H247.214V229.676H243.014C242.165 230.623 240.915 231.199 239.499 231.199C236.842 231.199 234.831 229.285 234.831 226.688C234.831 224.051 236.842 222.156 239.499 222.156C240.905 222.156 242.145 222.723 242.995 223.66H247.214V221.102H249.382ZM249.831 236.629V238.387H237.8V232.723H239.967V236.629H249.831ZM239.499 224.09C237.975 224.09 236.901 225.105 236.901 226.688C236.901 228.25 237.975 229.266 239.499 229.266C240.944 229.266 242.038 228.25 242.057 226.688C242.038 225.105 240.944 224.09 239.499 224.09ZM243.952 225.418C244.059 225.818 244.128 226.238 244.128 226.688C244.128 227.117 244.069 227.527 243.971 227.918H247.214V225.418H243.952ZM265.563 222.156V223.738C265.563 225.389 265.563 227.195 265.094 229.695H267.535V231.453H260.524V238.758H258.336V231.453H251.442V229.695H262.887C263.375 227.293 263.395 225.496 263.395 223.914H253.336V222.156H265.563ZM284.42 234.793V236.551H268.287V234.793H275.201V230.711H277.349V234.793H284.42ZM277.408 223.445C277.408 226.121 280.084 228.758 283.795 229.344L282.857 231.141C279.869 230.574 277.427 228.865 276.255 226.551C275.084 228.855 272.662 230.594 269.693 231.141L268.755 229.344C272.447 228.758 275.084 226.102 275.103 223.445V222.156H277.408V223.445Z" fill="white"/>
<rect x="423" y="209" width="185" height="42" rx="21" fill="#697077"/>
<path d="M488.538 221.102V231.414H486.37V229.461H482.171V227.703H486.37V225.809H482.347C481.224 228.621 478.655 230.584 474.808 231.648L473.929 229.93C478.06 228.807 480.257 226.717 480.609 224.09H474.866V222.332H482.972C482.972 222.947 482.923 223.533 482.816 224.09H486.37V221.102H488.538ZM482.698 231.609C486.273 231.609 488.655 232.957 488.655 235.125C488.655 237.293 486.273 238.641 482.698 238.641C479.085 238.641 476.702 237.293 476.702 235.125C476.702 232.957 479.085 231.609 482.698 231.609ZM482.698 233.309C480.316 233.309 478.87 233.953 478.87 235.125C478.87 236.277 480.316 236.922 482.698 236.922C485.023 236.922 486.487 236.277 486.487 235.125C486.487 233.953 485.023 233.309 482.698 233.309ZM495.501 222.078C496.926 222.078 498.157 222.605 498.997 223.484H503.215V221.082H505.383V231.473H503.215V229.227H498.997C498.157 230.105 496.917 230.623 495.501 230.613C492.844 230.633 490.833 228.836 490.833 226.355C490.833 223.855 492.844 222.078 495.501 222.078ZM495.501 223.934C493.977 223.934 492.903 224.871 492.903 226.355C492.903 227.801 493.977 228.777 495.501 228.777C496.965 228.777 498.04 227.801 498.059 226.355C498.04 224.871 496.965 223.934 495.501 223.934ZM499.407 231.844C503.118 231.844 505.442 233.113 505.442 235.281C505.442 237.449 503.118 238.719 499.407 238.719C495.715 238.719 493.391 237.449 493.411 235.281C493.391 233.113 495.715 231.844 499.407 231.844ZM499.407 233.504C496.946 233.504 495.52 234.129 495.54 235.281C495.52 236.395 496.946 237.02 499.407 237.02C501.907 237.02 503.313 236.395 503.313 235.281C503.313 234.129 501.907 233.504 499.407 233.504ZM499.973 225.223C500.071 225.584 500.129 225.955 500.129 226.355C500.129 226.746 500.071 227.117 499.993 227.469H503.215V225.223H499.973ZM514.104 226.102C514.104 228.992 515.803 232.039 518.654 233.23L517.463 234.949C515.373 234.051 513.85 232.195 513.049 229.949C512.229 232.371 510.686 234.402 508.615 235.379L507.365 233.68C510.158 232.391 511.896 229.109 511.896 226.102V224.617H508.01V222.82H517.971V224.617H514.104V226.102ZM522.131 221.082V238.738H519.943V221.082H522.131ZM539.093 221.102V234.461H536.906V232.918H533.449V231.395H536.906V221.102H539.093ZM539.503 236.629V238.387H526.554V233.172H528.722V236.629H539.503ZM524.21 229.031C527.472 229.012 531.847 228.973 535.597 228.504L535.714 230.066C534.259 230.311 532.755 230.477 531.261 230.574V233.973H529.093V230.691C527.443 230.76 525.871 230.77 524.484 230.77L524.21 229.031ZM529.972 221.746C532.55 221.746 534.347 223.016 534.367 224.871C534.347 226.766 532.55 227.977 529.972 227.977C527.355 227.977 525.558 226.766 525.558 224.871C525.558 223.016 527.355 221.746 529.972 221.746ZM529.972 223.348C528.566 223.348 527.609 223.914 527.609 224.871C527.609 225.828 528.566 226.395 529.972 226.395C531.32 226.395 532.277 225.828 532.296 224.871C532.277 223.914 531.32 223.348 529.972 223.348ZM555.802 221.082V230.086H553.653V221.082H555.802ZM555.841 230.906V235.496H546.29V236.863H556.368V238.582H544.161V233.875H553.673V232.586H544.122V230.906H555.841ZM547.716 222.879C547.716 225.125 549.2 227.234 551.993 228.074L550.938 229.754C548.888 229.129 547.423 227.811 546.622 226.121C545.821 227.957 544.317 229.393 542.208 230.066L541.114 228.367C543.966 227.449 545.47 225.184 545.47 222.879V221.512H547.716V222.879Z" fill="white"/>
<line x1="375.5" y1="323" x2="375.5" y2="352" stroke="#171C61"/>
<line x1="377.5" y1="179" x2="377.5" y2="281" stroke="#171C61"/>
<line x1="124.5" y1="352" x2="124.5" y2="399" stroke="#171C61"/>
<line x1="291.5" y1="352" x2="291.5" y2="399" stroke="#171C61"/>
<line x1="458.5" y1="352" x2="458.5" y2="399" stroke="#171C61"/>
<line x1="625.5" y1="352" x2="625.5" y2="399" stroke="#171C61"/>
<line x1="124" y1="352.5" x2="625" y2="352.5" stroke="#171C61"/>
<line x1="333" y1="229.5" x2="423" y2="229.5" stroke="#171C61"/>
</svg>
